# xmcd
#
# Track frame offsets:
#	150
#	9870
#	23655
#	42115
#	49345
#	62677
#	72800
#	88170
#	100107
#	114277
#
# Disc length: 1722 seconds
#
# Revision: 0
# Processed by: cddbd v1.5.2PL0 Copyright (c) Steve Scherf et al.
# Submitted via: audiograbber 1.83.01
#
DISCID=7206b80a
DTITLE=Alice Cooper - The Studio Albums 1969-1983 [CD 12) - Flush The Fashion
DYEAR=1980
DGENRE=Rock
TTITLE0=Talk Talk
TTITLE1=Clones (We're All)
TTITLE2=Pain
TTITLE3=Leather Boots
TTITLE4=Aspirin Damage
TTITLE5=Nuclear Infected
TTITLE6=Grim Facts
TTITLE7=Model Citizen
TTITLE8=Dance Yourself To Death
TTITLE9=Headlines
EXTD=
EXTT0=
EXTT1=
EXTT2=
EXTT3=
EXTT4=
EXTT5=
EXTT6=
EXTT7=
EXTT8=
EXTT9=
PLAYORDER=
